<?xml version="1.0" encoding="UTF-8"?>
<!-- Generated by Pixelmator Pro 3.6.18 -->
<svg width="1723" height="412" viewBox="0 0 1723 412" xmlns="http://www.w3.org/2000/svg">
    <path id="Shape-copy" fill="#931812" fill-rule="evenodd" stroke="none" d="M 1204.143066 410.916687 C 1188.598389 410.861908 1178.616089 410.390594 1175 409.540741 C 1171.974976 408.829773 1165.675049 407.991364 1161 407.677551 C 1156.324951 407.36377 1150.025024 406.604675 1147 405.990662 C 1143.974976 405.376648 1138.125 404.181366 1134 403.334473 C 1129.875 402.487579 1123.349976 401.125641 1119.5 400.307922 C 1115.650024 399.490204 1110.025024 398.183807 1107 397.404785 C 1103.974976 396.625763 1094.75 394.171478 1086.5 391.950806 C 1078.25 389.730133 1065.199951 385.883453 1057.5 383.402618 C 1049.800049 380.921783 1038.775024 377.0737 1033 374.851288 C 1027.224976 372.628906 1018.224976 368.770203 1013 366.276428 C 1004.571777 362.253784 1002.421143 360.634338 993.937744 351.922302 C 988.086426 345.913391 980.092041 335.970154 973.338257 326.301208 C 967.267822 317.610535 952.965576 296.372437 941.555542 279.105469 C 930.145386 261.838501 918.787354 245.548767 916.31543 242.906128 C 913.246948 239.625671 910.342529 237.636353 907.160522 236.635742 C 904.59729 235.829712 898.900024 234.64917 894.5 234.012268 C 890.099976 233.375427 876.150024 232.851013 863.5 232.846863 C 850.05603 232.842468 837.508301 233.343445 833.299438 234.052673 C 827.02887 235.109314 825.395203 235.862366 820.651489 239.882996 C 817.655396 242.422363 811.220642 249.462036 806.352051 255.526733 C 801.483398 261.591431 788.275024 278.914978 777 294.023438 C 765.724976 309.131958 752.517029 326.439331 747.648926 332.484375 C 742.780823 338.529358 734.944458 346.776611 730.234802 350.811584 C 724.331604 355.869141 718.228333 359.875732 710.585938 363.710571 C 704.488647 366.770081 694.549988 370.99115 688.5 373.09082 C 682.450012 375.190491 675.025024 377.789917 672 378.86734 C 668.974976 379.944763 663.125 381.761932 659 382.905518 C 654.875 384.049072 645.94812 386.562683 639.162537 388.491272 C 632.376953 390.41983 622.251953 392.890259 616.662537 393.981049 C 611.07312 395.071838 603.125 396.622833 599 397.427704 C 594.875 398.232544 588.913086 399.397736 585.751343 400.016968 C 582.5896 400.6362 575.164612 401.515839 569.251343 401.97171 C 563.338135 402.427612 552.875 403.365845 546 404.056671 C 537.972656 404.863281 526.880432 405.103394 515 404.727692 C 504.825012 404.405945 492.224976 403.63031 487 403.004089 C 481.775024 402.377838 472.549988 401.210785 466.5 400.410583 C 460.450012 399.610413 452.575012 398.312775 449 397.526947 C 445.424988 396.741119 438.900024 395.338806 434.5 394.410706 C 430.099976 393.482605 422 391.469818 416.5 389.937805 C 411 388.405823 400.200012 385.079407 392.5 382.545776 C 384.799988 380.012146 373.775024 375.953156 368 373.525818 C 362.224976 371.098511 352.325012 366.808655 346 363.992859 C 339.674988 361.177124 330.347595 356.648315 325.2724 353.928894 C 320.197235 351.209473 311.872223 346.457886 306.7724 343.369812 C 301.672577 340.281738 292.774994 334.359436 287 330.209229 C 281.225006 326.059021 272.678711 319.476624 268.00827 315.581665 C 263.337799 311.686768 251.43924 300.760437 241.567017 291.301025 C 231.694763 281.841553 217.876984 267.757629 210.860809 260.003418 C 203.844666 252.249207 192.74054 239.963745 186.185028 232.702454 C 179.629486 225.441101 166.289276 210.353882 156.5401 199.175232 C 146.790924 187.996643 129.7323 169.771606 118.63205 158.675232 C 107.531799 147.578857 90.26506 131.169067 80.26152 122.209045 C 70.257965 113.248962 55.558319 100.090576 47.595612 92.96814 C 39.632919 85.845703 27.76358 74.726685 21.219299 68.259155 C 14.675034 61.791626 7.380676 53.894287 5.009628 50.709534 C 1.724869 46.297546 0.595245 43.798035 0.264267 40.209534 C -0.141098 35.814453 0.085953 35.25354 3.664948 31.80835 C 5.774231 29.778015 10.649994 26.566772 14.5 24.672363 C 18.350006 22.777954 26.303101 19.588501 32.173538 17.584717 C 38.043991 15.580872 46.26622 13.092346 50.44516 12.054565 C 54.6241 11.016846 61.071014 9.470215 64.771622 8.617615 C 68.472229 7.765015 74.875 6.394226 79 5.571472 C 83.125 4.748657 90.550003 3.544189 95.5 2.894775 C 101.769165 2.072327 114.209656 1.906738 136.5 2.34906 C 154.100006 2.698303 176.825012 3.402588 187 3.914185 C 197.174988 4.42572 213.600006 5.332825 223.5 5.929932 C 233.399994 6.527039 246 7.493958 251.5 8.078552 C 257 8.663147 266 9.526306 271.5 9.996582 C 277 10.466919 284.424988 11.323975 288 11.901123 C 291.575012 12.478271 299.674988 13.653198 306 14.512085 C 312.325012 15.370972 321.325012 16.766968 326 17.614258 C 330.674988 18.461487 337.649994 19.809631 341.5 20.610107 C 345.350006 21.410522 361.099976 24.508972 376.5 27.495483 C 391.900024 30.481995 407.875 33.632019 412 34.495483 C 416.125 35.358948 421.974976 36.712952 425 37.504456 C 428.025024 38.295959 436.236938 40.308167 443.248779 41.976135 C 450.260681 43.644043 463.535645 46.822632 472.748779 49.039612 C 481.961975 51.256653 495.125 54.419373 502 56.067871 C 508.875 57.71637 516.974976 59.71759 520 60.515076 C 523.025024 61.312561 535.738098 64.445862 548.251282 67.477966 C 560.764465 70.51001 576.739502 74.355591 583.751282 76.023621 C 590.763062 77.691711 598.974976 79.712646 602 80.514587 C 605.025024 81.316589 623.139709 85.794861 642.255005 90.466309 C 661.370239 95.137756 682.634583 100.31134 689.509216 101.963135 C 696.383789 103.614868 712.130676 107.452454 724.502319 110.491089 C 736.873901 113.529663 750.034546 116.702209 753.748108 117.541199 C 757.461609 118.380127 763.314636 119.718689 766.7547 120.515869 C 770.194824 121.312988 775.819824 122.63269 779.2547 123.448547 C 782.689636 124.264404 794.724976 126.942993 806 129.40094 C 817.275024 131.858948 829.875 134.405762 834 135.060547 C 838.125 135.715332 844.694275 136.873718 848.59845 137.634705 C 852.502563 138.395691 860.377563 139.481079 866.098389 140.046631 C 871.819336 140.612183 880.775024 140.785767 886 140.432312 C 891.224976 140.078857 900.675049 138.667419 907 137.295837 C 913.324951 135.924255 921.425049 134.172058 925 133.402039 C 928.574951 132.632019 935.324951 131.082458 940 129.958618 C 944.675049 128.834717 951.310425 127.251404 954.745239 126.440186 C 958.180176 125.628906 963.915527 124.290161 967.490601 123.465149 C 971.065552 122.640198 976.805176 121.308655 980.245239 120.506287 C 983.685425 119.703918 991.557251 117.890259 997.738403 116.475952 C 1003.919556 115.061707 1014.719604 112.569336 1021.738403 110.937378 C 1028.757324 109.30542 1037.3125 107.301941 1040.75 106.485107 C 1044.1875 105.668274 1049.922852 104.317139 1053.495239 103.482605 C 1057.067749 102.64801 1062.915527 101.290161 1066.490601 100.465149 C 1070.065552 99.640198 1075.915527 98.290161 1079.490601 97.465149 C 1083.065552 96.640198 1088.805176 95.312988 1092.245239 94.515869 C 1095.685425 93.718689 1101.650024 92.365173 1105.5 91.507935 C 1109.349976 90.650696 1114.300049 89.535706 1116.5 89.030151 C 1118.699951 88.524597 1123.650024 87.433228 1127.5 86.604858 C 1131.349976 85.77655 1140.800049 83.722412 1148.5 82.040161 C 1156.199951 80.357971 1165.425049 78.326416 1169 77.525635 C 1172.574951 76.724854 1178.875 75.339478 1183 74.447021 C 1187.125 73.554565 1193.199951 72.217102 1196.5 71.474915 C 1199.800049 70.732666 1207 69.152588 1212.5 67.963623 C 1218 66.774597 1225.31543 65.185547 1228.756592 64.432312 C 1232.197632 63.679077 1238.158691 62.366333 1242.003174 61.515137 C 1245.847656 60.66394 1252.032104 59.283203 1255.746582 58.446899 C 1259.460938 57.610596 1264.525024 56.509521 1267 56 C 1269.474976 55.490479 1274.650024 54.363586 1278.5 53.495789 C 1282.349976 52.62793 1289.099976 51.280701 1293.5 50.502014 C 1297.900024 49.723267 1305.212524 48.391724 1309.75 47.54303 C 1314.287476 46.694397 1321.600952 45.330322 1326.002075 44.511841 C 1330.40332 43.693359 1337.71582 42.33075 1342.252075 41.483826 C 1346.788452 40.636963 1352.75 39.519226 1355.5 39 C 1358.25 38.480774 1364.324951 37.367065 1369 36.525024 C 1373.675049 35.683044 1379.75 34.562866 1382.5 34.035828 C 1385.25 33.508789 1391.324951 32.408264 1396 31.59021 C 1400.675049 30.772156 1407.650024 29.620972 1411.5 29.032104 C 1415.349976 28.443237 1421.875 27.518372 1426 26.976929 C 1430.125 26.435425 1438.114502 25.335022 1443.754517 24.531616 C 1449.394531 23.728149 1459.06958 22.345703 1465.254517 21.459412 C 1471.439575 20.57312 1479.425049 19.480835 1483 19.032043 C 1486.574951 18.583252 1493.550049 17.696045 1498.5 17.060547 C 1503.449951 16.425049 1512.449951 15.262512 1518.5 14.477173 C 1524.550049 13.691772 1537.599976 12.306702 1547.5 11.39917 C 1561.534058 10.11261 1572.991211 9.846558 1599.5 10.191589 C 1630.422974 10.594055 1634.133545 10.824646 1640.5 12.739868 C 1644.349976 13.89801 1650.875 15.320313 1655 15.900513 C 1659.125 16.480713 1666.775024 18.126709 1672 19.558289 C 1677.224976 20.989868 1685.550049 23.547241 1690.5 25.241394 C 1695.449951 26.935486 1702.875 29.873108 1707 31.769409 C 1711.378662 33.782288 1716.060669 36.854187 1718.25 39.150696 C 1721.214355 42.260071 1721.996582 43.861084 1721.983521 46.792114 C 1721.974487 48.831421 1720.962036 52.242432 1719.733521 54.37207 C 1718.505127 56.501709 1713.238647 63.026733 1708.030396 68.87207 C 1702.822266 74.717407 1693.147217 84.423889 1686.530396 90.442017 C 1679.913696 96.460144 1665.967773 109.285156 1655.539429 118.942017 C 1645.111084 128.598938 1628.011108 144.667114 1617.539429 154.64917 C 1607.067749 164.631226 1588.375 183.502014 1576 196.58429 C 1563.625 209.666626 1544.170044 230.194153 1532.766724 242.201111 C 1521.363403 254.208069 1505.838379 270.450684 1498.266724 278.295837 C 1490.695068 286.140991 1477.337036 299.071289 1468.582275 307.029907 C 1459.827515 314.988464 1449.252441 323.99884 1445.082275 327.05304 C 1440.911987 330.107178 1433.289795 335.639038 1428.143921 339.346008 C 1422.998169 343.05304 1412.873169 349.509033 1405.643921 353.692749 C 1398.414795 357.876404 1387.099976 364.061157 1380.5 367.436584 C 1373.900024 370.812012 1365.125 375.100128 1361 376.965759 C 1356.875 378.83136 1349.900024 381.691193 1345.5 383.320923 C 1341.099976 384.950653 1330.75 388.493408 1322.5 391.193726 C 1314.25 393.894043 1305.25 396.731232 1302.5 397.498596 C 1299.75 398.26593 1294.574951 399.558563 1291 400.371063 C 1287.425049 401.183594 1282.025024 402.356537 1279 402.9776 C 1275.974976 403.598663 1269.85437 404.748444 1265.39856 405.532623 C 1260.942749 406.316803 1253.967773 407.226196 1249.89856 407.553467 C 1245.829346 407.880737 1239.189331 408.7901 1235.143066 409.574249 C 1229.955566 410.579559 1220.814087 410.975433 1204.143066 410.916687 Z M 1220.5 375.362396 C 1229.849976 375.167786 1241.775024 374.731323 1247 374.392517 C 1252.224976 374.053711 1260.324951 373.177063 1265 372.444336 C 1269.675049 371.71167 1276.199951 370.561707 1279.5 369.888916 C 1282.800049 369.216125 1292.925049 366.670898 1302 364.232849 C 1311.074951 361.7948 1323.449951 358.021667 1329.5 355.848083 C 1335.550049 353.6745 1342.074951 351.298218 1344 350.567505 C 1345.925049 349.836792 1351.550049 347.555847 1356.5 345.498779 C 1361.449951 343.44165 1369.324951 339.888 1374 337.601746 C 1378.675049 335.315552 1389.025024 329.147034 1397 323.893982 C 1404.974976 318.640869 1418.025024 308.805481 1426 302.037476 C 1433.974976 295.26947 1446.285767 283.710022 1453.3573 276.349915 C 1460.428833 268.989746 1470.318115 257.687561 1475.333496 251.233887 C 1480.348877 244.780273 1486.554443 236.349976 1489.123657 232.5 C 1491.692749 228.650024 1496.450928 220.325012 1499.697144 214 C 1502.943481 207.674988 1507.244507 198.643738 1509.255127 193.930542 C 1511.265625 189.217285 1514.514404 180.442322 1516.474365 174.430542 C 1519.069214 166.471802 1520.428345 159.82959 1521.473633 150 C 1522.502197 140.328613 1522.672485 133.330139 1522.074463 125.322693 C 1521.406616 116.380554 1520.810669 113.542908 1519.09436 111.132568 C 1517.914429 109.475525 1513.772583 106.007996 1509.890137 103.427002 C 1505.542236 100.536499 1499.311279 97.600891 1493.665649 95.783203 C 1486.78418 93.567627 1481.384888 92.62146 1472 91.986755 C 1465.125 91.521729 1452.706787 90.877258 1444.404053 90.554504 C 1436.101318 90.23175 1416.301392 90.410034 1400.404053 90.950745 C 1384.506836 91.491394 1364.525024 92.632263 1356 93.485962 C 1347.474976 94.339661 1338.025024 95.447815 1335 95.948425 C 1331.974976 96.449097 1325.563721 97.571655 1320.752686 98.443054 C 1315.941772 99.314514 1308.066772 100.725098 1303.252686 101.577759 C 1298.438721 102.43042 1290.900024 103.791382 1286.5 104.602051 C 1282.099976 105.412781 1275.125 106.756104 1271 107.587158 C 1266.875 108.418213 1260.349976 109.765503 1256.5 110.581116 C 1252.650024 111.39679 1246.24353 112.749451 1242.26355 113.587097 C 1238.283447 114.424744 1232.208496 115.707153 1228.76355 116.436951 C 1225.318604 117.166687 1219.800049 118.317993 1216.5 118.995422 C 1213.199951 119.672791 1204.875 121.534424 1198 123.132446 C 1191.125 124.730408 1182.800049 126.683228 1179.5 127.472107 C 1176.199951 128.260925 1167.650024 130.302551 1160.5 132.009155 C 1153.349976 133.715698 1142.324951 136.4375 1136 138.057678 C 1129.675049 139.677795 1121.574951 141.827209 1118 142.834106 C 1114.425049 143.840942 1106.099976 146.152283 1099.5 147.970398 C 1092.900024 149.788513 1084.349976 152.313293 1080.5 153.580994 C 1076.650024 154.848755 1069.900024 157.204163 1065.5 158.815308 C 1061.099976 160.426453 1052.115601 164.139648 1045.534546 167.066895 C 1038.953613 169.994141 1029.346069 174.780823 1024.184448 177.703918 C 1019.022949 180.627075 1011.484131 185.310852 1007.431519 188.112366 C 1003.379028 190.913879 997.011597 195.877625 993.281616 199.142944 C 989.551758 202.408203 984.330078 207.649353 981.677979 210.789917 C 979.026001 213.930481 975.121948 219.911011 973.002319 224.080017 C 970.882813 228.248962 968.591064 234.359314 967.909668 237.658508 C 966.845459 242.810669 966.910767 244.612549 968.371826 250.429321 C 969.307495 254.154114 971.462402 259.96875 973.1604 263.35083 C 974.858521 266.732849 979.195557 273.549988 982.798218 278.5 C 986.400879 283.450012 993.125244 291.63501 997.741333 296.688965 C 1002.357422 301.742859 1010.828979 309.98822 1016.567139 315.011902 C 1022.930176 320.582703 1031.388794 326.700623 1038.25 330.694763 C 1044.4375 334.296631 1052.650024 338.743164 1056.5 340.57605 C 1060.349976 342.408936 1066.425049 345.23584 1070 346.858154 C 1073.574951 348.480469 1082.246704 351.881958 1089.270386 354.417114 C 1096.294067 356.952209 1107.769043 360.567261 1114.770386 362.450562 C 1121.771729 364.333862 1130.650024 366.536743 1134.5 367.345764 C 1138.349976 368.154846 1145.550049 369.523987 1150.5 370.388306 C 1155.449951 371.252625 1165.349976 372.658264 1172.5 373.512024 C 1179.650024 374.365753 1189.550049 375.210968 1194.5 375.390289 C 1199.449951 375.56958 1211.150024 375.557037 1220.5 375.362396 Z M 530.5 371.318542 C 537.650024 371.082031 549.125 370.462646 556 369.942139 C 562.875 369.42157 572.438416 368.326721 577.252014 367.509094 C 582.065674 366.691467 590.165649 365.305115 595.252014 364.428345 C 600.33844 363.551514 608.549988 361.724915 613.5 360.369263 C 618.450012 359.01355 624.974976 357.06488 628 356.038879 C 631.025024 355.012878 636.650024 352.993408 640.5 351.551147 C 644.349976 350.108887 650.200012 347.714355 653.5 346.230042 C 656.799988 344.745667 663.325012 341.634338 668 339.315918 C 672.674988 336.997498 680.775024 332.569336 686 329.475525 C 691.224976 326.381775 699.325012 321.092163 704 317.720947 C 708.674988 314.34967 715.335327 309.095825 718.80072 306.045715 C 722.266174 302.995544 727.462769 297.575012 730.348816 294 C 733.234863 290.424988 738.875305 282.149475 742.883118 275.609985 C 746.89093 269.070496 752.095215 260.239502 754.448181 255.985657 C 756.801208 251.73175 759.462952 246.0896 760.363159 243.44751 C 761.410278 240.37439 762 235.342834 762 229.481567 C 762 221.184448 761.698669 219.714294 758.808105 213.909729 C 756.685547 209.647278 753.07666 204.984985 748.035339 199.992493 C 743.865845 195.863342 736.864685 189.988281 732.477234 186.93689 C 728.089722 183.885437 720.900024 179.347778 716.5 176.853088 C 712.099976 174.358459 704.900024 170.616333 700.5 168.537231 C 696.099976 166.45813 688.213745 163.049133 682.974915 160.96167 C 677.736145 158.874146 667.386169 155.150818 659.974915 152.687622 C 652.563721 150.224365 637.5 145.423706 626.5 142.019531 C 615.5 138.615295 604.139832 135.184448 601.255127 134.395325 C 598.370422 133.606262 593.420471 132.254944 590.255127 131.392395 C 587.089783 130.529907 577.644348 128.036926 569.265137 125.852478 C 560.885986 123.668091 547.385986 120.149231 539.265137 118.032898 C 531.144348 115.916504 520.100403 113.065002 514.723145 111.696106 C 509.345825 110.327271 501.920837 108.496338 498.223145 107.62738 C 494.525391 106.758484 484.075012 104.263123 475 102.082153 C 465.924988 99.901184 448.375 96.126221 436 93.693298 C 423.625 91.260376 408.440552 88.515869 402.256714 87.59436 C 396.072937 86.672913 386.622925 85.271301 381.256714 84.479797 C 375.890503 83.688232 369.025024 82.880737 366 82.685364 C 362.974976 82.48999 354.424988 81.798767 347 81.149353 C 339.575012 80.499939 327.200012 79.583801 319.5 79.113525 C 311.799988 78.64325 298.507507 78.610291 289.961121 79.040344 C 281.414734 79.470398 270.164734 80.594238 264.961121 81.537781 C 259.757507 82.481384 251.225006 84.601685 246 86.249634 C 240.774994 87.897583 232.899994 91.09613 228.5 93.357544 C 224.100006 95.618896 218.545685 99.418579 216.157074 101.801147 C 213.768494 104.183777 210.50119 109.028931 208.896423 112.568176 C 206.542816 117.758972 205.788605 121.274658 204.995697 130.751587 C 204.455078 137.213196 204.283508 145.875 204.61441 150 C 204.945313 154.125 206.052856 161.367249 207.075623 166.093811 C 208.098358 170.820435 210.248932 178.245422 211.854675 182.593811 C 213.460449 186.9422 216.574615 194.338562 218.775085 199.03009 C 220.975586 203.72168 225.35965 211.821655 228.517517 217.03009 C 231.675354 222.238525 236.967804 230.325012 240.278473 235 C 243.589172 239.674988 250.168396 248.221069 254.898956 253.991272 C 259.629517 259.761475 266.413086 267.572876 269.973541 271.349854 C 273.533997 275.126831 279.619263 280.789001 283.496368 283.932373 C 287.373474 287.075745 296.238953 293.546753 303.197479 298.312378 C 310.155975 303.078003 321.620697 310.503418 328.674652 314.813232 C 335.728577 319.123108 346.225006 325.130188 352 328.162292 C 357.775024 331.194397 370.825012 337.194763 381 341.496521 C 391.174988 345.798218 401.299988 350.092957 403.5 351.040466 C 405.700012 351.987915 412.674988 354.351135 419 356.292114 C 425.325012 358.233093 434.549988 360.715759 439.5 361.809143 C 444.450012 362.902527 451.536194 364.298584 455.24707 364.91156 C 458.957947 365.524475 465.707947 366.677917 470.24707 367.474792 C 474.786194 368.271667 484.575012 369.38623 492 369.951538 C 499.424988 370.516846 508.200012 371.152466 511.5 371.363953 C 514.799988 371.5755 523.349976 371.555054 530.5 371.318542 Z"/>
</svg>
