<?xml version="1.0" encoding="UTF-8"?>
<!-- Generated by Pixelmator Pro 3.6.18 -->
<svg width="1810" height="1764" viewBox="0 0 1810 1764" xmlns="http://www.w3.org/2000/svg">
    <path id="Shape-copy" fill="#ffffff" fill-rule="evenodd" stroke="none" d="M 137.297211 970 C 136.335022 951.787476 135.530319 935.025024 134.888214 921 C 134.190506 905.760132 133.969543 883.42926 134.339066 865.5 C 134.679138 849 135.424103 828.525024 135.994537 820 C 136.564972 811.474976 137.725891 797.074951 138.574341 788 C 139.422791 778.925049 140.996613 764.525024 142.071716 756 C 143.14679 747.474976 145.143524 733.525024 146.50885 725 C 147.874207 716.474976 149.226837 708.487549 149.514709 707.25 C 150.038116 705 150.038116 705 905.5 705 C 1660.961914 705 1660.961914 705 1661.485352 707.25 C 1661.773193 708.487549 1663.119507 716.474976 1664.477295 725 C 1665.834961 733.525024 1667.830688 747.474976 1668.912109 756 C 1669.993652 764.525024 1671.57373 778.925049 1672.423462 788 C 1673.273071 797.074951 1674.425415 811.398315 1674.984131 819.82959 C 1675.542847 828.260864 1675.986816 857.060791 1675.970825 883.829529 C 1675.954834 910.598328 1675.528809 938.349976 1675.02417 945.5 C 1674.519409 952.650024 1673.814087 962.383179 1673.456665 967.129333 C 1672.806763 975.758606 1672.806763 975.758606 1676.153442 976.23999 C 1677.994019 976.5047 1683.099976 977.426941 1687.5 978.289368 C 1691.900024 979.151794 1698.875 980.382263 1703 981.023682 C 1707.125 981.6651 1714.550049 983.090637 1719.5 984.191528 C 1724.449951 985.292419 1732.775024 987.322998 1738 988.703979 C 1743.224976 990.0849 1751.775024 992.561218 1757 994.206909 C 1762.224976 995.852539 1770.324951 998.971985 1775 1001.139038 C 1779.675049 1003.30603 1785.974976 1006.706238 1789 1008.695068 C 1792.025024 1010.68396 1795.962036 1013.847656 1797.748901 1015.725586 C 1799.535767 1017.603516 1802.094971 1021.020996 1803.436035 1023.320007 C 1804.7771 1025.619019 1806.802612 1030.979248 1807.937134 1035.231689 C 1809.604004 1041.479004 1810 1045.969482 1810 1058.623779 C 1810 1071.60437 1809.640869 1075.500732 1807.901611 1081.392212 C 1806.747437 1085.301514 1804.230225 1091.511963 1802.307617 1095.193115 C 1800.131592 1099.359619 1794.977905 1106.050049 1788.656006 1112.915283 C 1783.07019 1118.981201 1772.320679 1129.842285 1764.768188 1137.05127 C 1757.215698 1144.260254 1747.090698 1153.522827 1742.268188 1157.634766 C 1737.445679 1161.746704 1728.099976 1170.430176 1721.5 1176.931396 C 1714.900024 1183.432495 1703.36438 1194.320068 1695.865356 1201.125732 C 1688.366211 1207.931641 1675.131226 1221.150024 1666.454102 1230.5 C 1657.776978 1239.849976 1644.036987 1254.25 1635.920654 1262.5 C 1627.804443 1270.75 1616.130127 1283.125 1609.977905 1290 C 1603.825562 1296.875 1592.306885 1309.033325 1584.380737 1317.018555 C 1570.132202 1331.373291 1569.867188 1331.7229 1560.873169 1348.018555 C 1555.870117 1357.083252 1548.154907 1370.574951 1543.728149 1378 C 1539.301392 1385.425049 1531.599243 1397.800049 1526.612183 1405.5 C 1521.625122 1413.199951 1513.770996 1424.900024 1509.158691 1431.5 C 1504.546265 1438.099976 1496.385132 1449.349976 1491.022827 1456.5 C 1485.6604 1463.650024 1476.889771 1474.900024 1471.532349 1481.5 C 1466.175049 1488.099976 1457.863037 1498 1453.061401 1503.5 C 1448.259766 1509 1438.245605 1520.025024 1430.807739 1528 C 1423.369873 1535.974976 1411.697144 1547.900024 1404.868286 1554.5 C 1398.039551 1561.099976 1386.613037 1571.709961 1379.476196 1578.077515 C 1372.339233 1584.44519 1361.168335 1594.020142 1354.651978 1599.355225 C 1348.135498 1604.690186 1335.760498 1614.342651 1327.151978 1620.804932 C 1318.543335 1627.267212 1304.75 1637.082764 1296.5 1642.617432 C 1288.25 1648.151855 1274.75 1656.74353 1266.5 1661.709961 C 1258.25 1666.67627 1245.650024 1673.92981 1238.5 1677.828857 C 1231.349976 1681.727783 1216.724976 1689.1875 1206 1694.405884 C 1195.275024 1699.624146 1179.468628 1706.80542 1170.874756 1710.364258 C 1162.280884 1713.923096 1148.555786 1719.27832 1140.374756 1722.264893 C 1132.193604 1725.251465 1118.074951 1729.997192 1109 1732.811035 C 1099.925049 1735.624756 1084.625 1739.955078 1075 1742.433838 C 1065.375 1744.91272 1049.563965 1748.533325 1039.864258 1750.479736 C 1030.164673 1752.426147 1014.864746 1755.102295 1005.864258 1756.42688 C 996.863892 1757.751343 982.525024 1759.545166 974 1760.413208 C 965.474976 1761.281128 950.625 1762.436768 941 1762.981201 C 931.375 1763.525513 914.050049 1763.910767 902.5 1763.83728 C 890.950012 1763.763672 875.200012 1763.345825 867.5 1762.908569 C 859.799988 1762.471436 846.299988 1761.377197 837.5 1760.477051 C 828.700012 1759.576904 814.136047 1757.755493 805.135681 1756.429565 C 796.135315 1755.103516 780.835327 1752.42334 771.135681 1750.473389 C 761.436035 1748.52356 746.299988 1745.096313 737.5 1742.8573 C 728.700012 1740.618408 714.974976 1736.793457 707 1734.357422 C 699.025024 1731.921387 685.974976 1727.64209 678 1724.847778 C 670.025024 1722.053467 658.099976 1717.614746 651.5 1714.984131 C 644.900024 1712.353394 633.875 1707.742432 627 1704.737305 C 620.125 1701.7323 606.174988 1695.107666 596 1690.015869 C 585.825012 1684.924194 570.928467 1677.025757 562.896606 1672.463867 C 554.864746 1667.901855 542.714783 1660.708862 535.896606 1656.47937 C 529.078491 1652.249878 517.200012 1644.479614 509.5 1639.212036 C 501.799988 1633.944458 490.099976 1625.585205 483.5 1620.635742 C 476.900024 1615.686279 465.650024 1606.883789 458.5 1601.074463 C 451.349976 1595.265137 439.650024 1585.303223 432.5 1578.936646 C 425.349976 1572.570068 413.200012 1561.259521 405.5 1553.802246 C 397.799988 1546.344727 384.679596 1532.875977 376.343536 1523.871582 C 368.007477 1514.867188 356.059265 1501.389038 349.791931 1493.920044 C 343.524597 1486.45105 334.550049 1475.426025 329.84848 1469.420044 C 325.146912 1463.414063 317.030334 1452.650024 311.811646 1445.5 C 306.592957 1438.349976 298.108307 1426.199951 292.956879 1418.5 C 287.80545 1410.800049 279.945099 1398.650024 275.489441 1391.5 C 271.033783 1384.349976 263.539398 1371.75 258.835297 1363.5 C 254.131165 1355.25 247.206757 1342.650024 243.447662 1335.5 C 238.859222 1326.772461 234.56134 1320.199463 230.370392 1315.5 C 226.936951 1311.650024 221.28653 1305.25708 217.813904 1301.293457 C 214.341248 1297.329834 205.200012 1287.184814 197.5 1278.749146 C 189.799988 1270.313477 179.240936 1258.481323 174.0354 1252.455688 C 168.829895 1246.430054 158.62735 1234.938965 151.363098 1226.920166 C 144.098846 1218.901123 132.607925 1206.802979 125.827698 1200.0354 C 119.047455 1193.267822 107.875 1182.761353 101 1176.687744 C 94.125 1170.614136 84.482513 1162.012207 79.572235 1157.572388 C 74.661972 1153.132568 66.561981 1145.642456 61.572235 1140.927734 C 56.582504 1136.212891 48.364395 1128.892578 43.309769 1124.6604 C 38.255142 1120.428345 30.759064 1113.260864 26.651825 1108.73291 C 22.544586 1104.204834 16.732391 1097.349976 13.735809 1093.5 C 10.739243 1089.650024 7.373375 1084.699951 6.256111 1082.5 C 5.13884 1080.300049 3.274155 1075.301514 2.112358 1071.392212 C 0.412514 1065.672363 0 1061.616699 0 1050.623779 C 0 1040.022217 0.45977 1035.231934 2.053261 1029.231689 C 3.182556 1024.979248 5.545052 1019.094971 7.303261 1016.155457 C 9.061462 1013.215942 12.213135 1009.25647 14.306961 1007.356628 C 16.400787 1005.456726 20.45079 1002.423645 23.306961 1000.616455 C 26.163132 998.809265 32.824875 995.489258 38.110825 993.238647 C 43.396774 990.988037 54.196777 987.109009 62.110825 984.618652 C 70.024872 982.128357 82.574997 978.703857 90 977.008667 C 97.425003 975.313538 107.324997 973.038574 112 971.953247 C 116.917175 970.811707 124.040085 969.984131 128.898605 969.989929 L 137.297211 970 Z M 179.317352 585 L 1631.682617 585 L 1634.814697 595.25 C 1636.537231 600.887451 1639.912964 612.699951 1642.316162 621.5 C 1644.71936 630.300049 1647.001831 639.1875 1647.388184 641.25 C 1648.090576 645 1648.090576 645 905.5 645 C 162.909363 645 162.909363 645 163.594849 641.25 C 163.971863 639.1875 166.255554 630.300049 168.669678 621.5 C 171.083801 612.699951 174.467133 600.887451 176.188171 595.25 L 179.317352 585 Z M 226.242432 465 L 1584.712158 465 L 1589.496582 475.25 C 1592.128052 480.887451 1596.286987 490.224976 1598.73877 496 C 1601.190552 501.775024 1604.453857 509.650024 1605.990479 513.5 C 1607.527222 517.349976 1609.088257 521.512451 1609.459595 522.75 C 1610.134766 525 1610.134766 525 905.5 525 C 200.865234 525 200.865234 525 201.545898 522.75 C 201.920258 521.512451 204.692871 514.425049 207.707275 507 C 210.721649 499.574951 216.125214 487.087524 219.715179 479.25 L 226.242432 465 Z M 294.5 345.019043 L 1516.590088 345 L 1524.942627 357.75 C 1529.536499 364.762451 1537.479858 377.474976 1542.594604 386 C 1547.709351 394.525024 1552.19104 402.287476 1552.554077 403.25 C 1553.182129 404.915527 1521.9552 405 905.5 405 C 289.0448 405 257.817871 404.915527 258.445953 403.25 C 258.808899 402.287476 263.297943 394.501831 268.4216 385.948486 C 273.545258 377.395142 281.508942 364.68689 286.118683 357.708008 L 294.5 345.019043 Z M 392.22287 225 L 1418.795898 225 L 1429.286865 236.25 C 1435.056885 242.4375 1442.810181 250.875 1446.516602 255 C 1450.223022 259.125 1456.837036 266.775024 1461.2146 272 C 1465.592163 277.224976 1469.600586 282.287476 1470.12207 283.25 C 1471.024658 284.915771 1443.833008 285 905.5 285 C 367.166992 285 339.975311 284.915771 340.877899 283.25 C 341.399445 282.287476 345.409821 277.224976 349.789825 272 C 354.16983 266.775024 360.846436 259.063354 364.62674 254.862915 C 368.407043 250.662476 376.162659 242.224976 381.86145 236.112915 L 392.22287 225 Z M 543.05896 105 L 1267.94104 105 L 1279.156738 112.054565 C 1285.325439 115.93457 1296.026123 122.987305 1302.936279 127.727173 C 1309.846313 132.467041 1320.900024 140.389038 1327.5 145.331543 C 1334.099976 150.274048 1341.862549 156.306152 1344.75 158.736206 C 1347.637451 161.166382 1350 163.569824 1350 164.077271 C 1350 164.639526 1176.059204 164.990234 904.75 164.974976 C 459.5 164.949951 459.5 164.949951 463.5 161.213013 C 465.700012 159.157593 473.799988 152.71814 481.5 146.903076 C 489.200012 141.088013 501.153687 132.455444 508.063782 127.719604 C 514.973877 122.983887 525.674622 115.93457 531.843262 112.054565 L 543.05896 105 Z M 905.490356 45 C 695.97229 45 680.169128 44.883179 679.57312 43.329956 C 679.220276 42.4104 679.509216 41.28894 680.216125 40.834595 C 680.922241 40.380615 683.75 39.173218 686.5 38.151367 C 689.25 37.129517 697.637695 34.411011 705.139343 32.110352 C 712.640991 29.80957 726.591003 25.934692 736.139343 23.499512 C 745.687683 21.064209 761.448975 17.473755 771.164429 15.520752 C 780.879822 13.567749 796.404846 10.867554 805.664429 9.520386 C 814.924011 8.173096 829.025024 6.38623 837 5.549438 C 844.974976 4.712524 859.825012 3.571899 870 3.014526 C 880.174988 2.457153 896.150024 2.001099 905.5 2.001099 C 914.849976 2.001099 930.824951 2.457153 941 3.014526 C 951.175049 3.571899 966.025024 4.712524 974 5.549438 C 981.974976 6.38623 996.07605 8.173096 1005.335571 9.520386 C 1014.595093 10.867554 1030.120117 13.568237 1039.835571 15.521973 C 1049.551025 17.475708 1065.394653 21.084839 1075.043823 23.542236 C 1084.692871 25.999512 1098.417847 29.805664 1105.543823 32 C 1112.669678 34.194458 1121.489868 37.138306 1125.144165 38.54187 C 1130.703247 40.67688 1131.704834 41.412598 1131.277466 43.046875 C 1130.772705 44.977051 1128.125122 45 905.490356 45 Z"/>
</svg>
